<?xml version="1.0" encoding="utf-8" standalone="no"?>
<!DOCTYPE svg PUBLIC "-//W3C//DTD SVG 1.1//EN"
  "http://www.w3.org/Graphics/SVG/1.1/DTD/svg11.dtd">
<svg xmlns:xlink="http://www.w3.org/1999/xlink" width="1076.840345pt" height="571.665393pt" viewBox="0 0 1076.840345 571.665393" xmlns="http://www.w3.org/2000/svg" version="1.1">
 <metadata>
  <rdf:RDF xmlns:dc="http://purl.org/dc/elements/1.1/" xmlns:cc="http://creativecommons.org/ns#" xmlns:rdf="http://www.w3.org/1999/02/22-rdf-syntax-ns#">
   <cc:Work>
    <dc:type rdf:resource="http://purl.org/dc/dcmitype/StillImage"/>
    <dc:date>2026-04-17T14:10:03.247814</dc:date>
    <dc:format>image/svg+xml</dc:format>
    <dc:creator>
     <cc:Agent>
      <dc:title>Matplotlib v3.10.8, https://matplotlib.org/</dc:title>
     </cc:Agent>
    </dc:creator>
   </cc:Work>
  </rdf:RDF>
 </metadata>
 <defs>
  <style type="text/css">*{stroke-linejoin: round; stroke-linecap: butt}</style>
 </defs>
 <g id="figure_1">
  <g id="patch_1">
   <path d="M 0 571.665393 
L 1076.840345 571.665393 
L 1076.840345 0 
L 0 0 
z
" style="fill: #ffffff"/>
  </g>
  <g id="axes_1">
   <g id="line2d_1">
    <path d="M 49.44 416.4 
L 49.44 55.6 
" clip-path="url(#pa89a81634d)" style="fill: none; stroke: #2c2825; stroke-width: 3.2; stroke-linecap: round"/>
   </g>
   <g id="line2d_2">
    <path d="M 49.44 55.6 
L 75.84 55.6 
" clip-path="url(#pa89a81634d)" style="fill: none; stroke: #2c2825; stroke-width: 3.2; stroke-linecap: round"/>
   </g>
   <g id="line2d_3">
    <path d="M 49.44 416.4 
L 75.84 416.4 
" clip-path="url(#pa89a81634d)" style="fill: none; stroke: #2c2825; stroke-width: 3.2; stroke-linecap: round"/>
   </g>
   <g id="line2d_4">
    <path d="M 422.56 416.4 
L 422.56 55.6 
" clip-path="url(#pa89a81634d)" style="fill: none; stroke: #2c2825; stroke-width: 3.2; stroke-linecap: round"/>
   </g>
   <g id="line2d_5">
    <path d="M 396.16 55.6 
L 422.56 55.6 
" clip-path="url(#pa89a81634d)" style="fill: none; stroke: #2c2825; stroke-width: 3.2; stroke-linecap: round"/>
   </g>
   <g id="line2d_6">
    <path d="M 396.16 416.4 
L 422.56 416.4 
" clip-path="url(#pa89a81634d)" style="fill: none; stroke: #2c2825; stroke-width: 3.2; stroke-linecap: round"/>
   </g>
   <g id="line2d_7">
    <path d="M 236 412 
L 236 60 
" clip-path="url(#pa89a81634d)" style="fill: none; stroke: #a59a8a; stroke-opacity: 0.6; stroke-width: 1.6; stroke-linecap: square"/>
   </g>
   <g id="line2d_8">
    <path d="M 60 236 
L 412 236 
" clip-path="url(#pa89a81634d)" style="fill: none; stroke: #a59a8a; stroke-opacity: 0.6; stroke-width: 1.6; stroke-linecap: square"/>
   </g>
   <g id="line2d_9">
    <defs>
     <path id="me126788aa2" d="M 0 3 
C 0.795609 3 1.55874 2.683901 2.12132 2.12132 
C 2.683901 1.55874 3 0.795609 3 0 
C 3 -0.795609 2.683901 -1.55874 2.12132 -2.12132 
C 1.55874 -2.683901 0.795609 -3 0 -3 
C -0.795609 -3 -1.55874 -2.683901 -2.12132 -2.12132 
C -2.683901 -1.55874 -3 -0.795609 -3 0 
C -3 0.795609 -2.683901 1.55874 -2.12132 2.12132 
C -1.55874 2.683901 -0.795609 3 0 3 
z
" style="stroke: #2c2825"/>
    </defs>
    <g clip-path="url(#pa89a81634d)">
     <use xlink:href="#me126788aa2" x="148" y="148" style="fill: #2c2825; stroke: #2c2825"/>
    </g>
   </g>
   <g id="line2d_10">
    <g clip-path="url(#pa89a81634d)">
     <use xlink:href="#me126788aa2" x="324" y="324" style="fill: #2c2825; stroke: #2c2825"/>
    </g>
   </g>
   <g id="line2d_11">
    <g clip-path="url(#pa89a81634d)">
     <use xlink:href="#me126788aa2" x="324" y="148" style="fill: #2c2825; stroke: #2c2825"/>
    </g>
   </g>
   <g id="line2d_12">
    <g clip-path="url(#pa89a81634d)">
     <use xlink:href="#me126788aa2" x="148" y="324" style="fill: #2c2825; stroke: #2c2825"/>
    </g>
   </g>
   <g id="patch_2">
    <path d="M 150.00127 148 
Q 174.400721 148 194.887053 148 
" style="fill: none; stroke: #2c2825; stroke-width: 3.5; stroke-linecap: round"/>
    <path d="M 183.687053 142.4 
L 194.887053 148 
L 183.687053 153.6 
z
" style="fill: #2c2825; stroke: #2c2825; stroke-width: 3.5; stroke-linecap: round"/>
   </g>
   <g id="text_1">
    <!-- $a$ -->
    <g style="fill: #2c2825" transform="translate(137.4 222.8) scale(0.4 -0.4)">
     <defs>
      <path id="Cmmi10-61" d="M 1113 -72 
Q 709 -72 476 233 
Q 244 538 244 953 
Q 244 1363 456 1803 
Q 669 2244 1030 2536 
Q 1391 2828 1806 2828 
Q 1997 2828 2147 2725 
Q 2297 2622 2381 2444 
Q 2453 2700 2663 2700 
Q 2744 2700 2798 2651 
Q 2853 2603 2853 2522 
Q 2853 2503 2851 2493 
Q 2850 2484 2847 2472 
L 2400 684 
Q 2356 494 2356 372 
Q 2356 97 2541 97 
Q 2741 97 2845 351 
Q 2950 606 3022 941 
Q 3034 978 3072 978 
L 3150 978 
Q 3175 978 3190 956 
Q 3206 934 3206 916 
Q 3094 469 2961 198 
Q 2828 -72 2528 -72 
Q 2313 -72 2147 54 
Q 1981 181 1941 391 
Q 1528 -72 1113 -72 
z
M 1119 97 
Q 1350 97 1567 270 
Q 1784 444 1941 678 
Q 1947 684 1947 697 
L 2291 2088 
L 2297 2106 
Q 2259 2334 2132 2498 
Q 2006 2663 1791 2663 
Q 1575 2663 1389 2486 
Q 1203 2309 1075 2069 
Q 950 1813 836 1366 
Q 722 919 722 672 
Q 722 450 817 273 
Q 913 97 1119 97 
z
" transform="scale(0.015625)"/>
     </defs>
     <use xlink:href="#Cmmi10-61" transform="translate(0 0.8125)"/>
    </g>
   </g>
   <g id="patch_3">
    <path d="M 326.00127 324 
Q 350.400721 324 370.887053 324 
" style="fill: none; stroke: #2c2825; stroke-width: 3.5; stroke-linecap: round"/>
    <path d="M 359.687053 318.4 
L 370.887053 324 
L 359.687053 329.6 
z
" style="fill: #2c2825; stroke: #2c2825; stroke-width: 3.5; stroke-linecap: round"/>
   </g>
   <g id="text_2">
    <!-- $d$ -->
    <g style="fill: #2c2825" transform="translate(313.4 398.8) scale(0.4 -0.4)">
     <defs>
      <path id="Cmmi10-64" d="M 1113 -72 
Q 709 -72 476 233 
Q 244 538 244 953 
Q 244 1363 456 1803 
Q 669 2244 1030 2536 
Q 1391 2828 1806 2828 
Q 1994 2828 2145 2723 
Q 2297 2619 2381 2444 
L 2741 3872 
Q 2766 3981 2772 4044 
Q 2772 4147 2356 4147 
Q 2291 4147 2291 4231 
Q 2294 4247 2305 4287 
Q 2316 4328 2333 4350 
Q 2350 4372 2381 4372 
L 3244 4441 
Q 3322 4441 3322 4359 
L 2400 678 
Q 2356 572 2356 372 
Q 2356 97 2541 97 
Q 2741 97 2845 351 
Q 2950 606 3022 941 
Q 3034 978 3072 978 
L 3150 978 
Q 3175 978 3190 956 
Q 3206 934 3206 916 
Q 3094 469 2961 198 
Q 2828 -72 2528 -72 
Q 2313 -72 2147 54 
Q 1981 181 1941 391 
Q 1528 -72 1113 -72 
z
M 1119 97 
Q 1350 97 1567 270 
Q 1784 444 1941 678 
Q 1947 684 1947 703 
L 2297 2113 
Q 2259 2338 2131 2500 
Q 2003 2663 1791 2663 
Q 1575 2663 1389 2486 
Q 1203 2309 1075 2069 
Q 950 1813 836 1366 
Q 722 919 722 672 
Q 722 450 817 273 
Q 913 97 1119 97 
z
" transform="scale(0.015625)"/>
     </defs>
     <use xlink:href="#Cmmi10-64" transform="translate(0 0.609375)"/>
    </g>
   </g>
   <g id="patch_4">
    <path d="M 325.349286 146.528052 
Q 342.149478 128.200569 356.305479 112.757659 
" style="fill: none; stroke: #b84a35; stroke-width: 3.5; stroke-linecap: round"/>
    <path d="M 344.6093 117.229727 
L 356.305479 112.757659 
L 352.865427 124.797843 
z
" style="fill: #b84a35; stroke: #b84a35; stroke-width: 3.5; stroke-linecap: round"/>
   </g>
   <g id="text_3">
    <!-- $z$ -->
    <g style="fill: #b84a35" transform="translate(314.6 222.8) scale(0.4 -0.4)">
     <defs>
      <path id="Cmmi10-7a" d="M 313 -72 
Q 263 -72 263 -13 
Q 263 19 275 31 
Q 447 328 689 598 
Q 931 869 1239 1145 
Q 1547 1422 1858 1700 
Q 2169 1978 2363 2194 
L 2338 2194 
Q 2197 2194 1925 2284 
Q 1653 2375 1497 2375 
Q 1328 2375 1168 2301 
Q 1009 2228 966 2075 
Q 956 2028 916 2028 
L 838 2028 
Q 788 2028 788 2094 
L 788 2113 
Q 838 2300 952 2462 
Q 1066 2625 1233 2726 
Q 1400 2828 1581 2828 
Q 1709 2828 1793 2770 
Q 1878 2713 1990 2591 
Q 2103 2469 2173 2416 
Q 2244 2363 2350 2363 
Q 2491 2363 2602 2491 
Q 2713 2619 2822 2809 
Q 2841 2828 2869 2828 
L 2944 2828 
Q 2966 2828 2980 2812 
Q 2994 2797 2994 2772 
Q 2994 2750 2981 2731 
Q 2809 2434 2579 2176 
Q 2350 1919 1979 1586 
Q 1609 1253 1354 1023 
Q 1100 794 878 550 
Q 928 563 1013 563 
Q 1169 563 1439 473 
Q 1709 384 1856 384 
Q 2016 384 2178 453 
Q 2341 522 2459 647 
Q 2578 772 2619 934 
Q 2634 978 2669 978 
L 2747 978 
Q 2772 978 2787 958 
Q 2803 938 2803 916 
Q 2803 909 2797 897 
Q 2738 653 2591 433 
Q 2444 213 2230 70 
Q 2016 -72 1772 -72 
Q 1650 -72 1565 -15 
Q 1481 41 1367 164 
Q 1253 288 1181 342 
Q 1109 397 1006 397 
Q 688 397 434 -50 
Q 413 -72 391 -72 
L 313 -72 
z
" transform="scale(0.015625)"/>
     </defs>
     <use xlink:href="#Cmmi10-7a" transform="translate(0 0.8125)"/>
    </g>
   </g>
   <g id="patch_5">
    <path d="M 149.349286 325.471948 
Q 166.149478 343.799431 180.305479 359.242341 
" style="fill: none; stroke: #b84a35; stroke-width: 3.5; stroke-linecap: round"/>
    <path d="M 176.865427 347.202157 
L 180.305479 359.242341 
L 168.6093 354.770273 
z
" style="fill: #b84a35; stroke: #b84a35; stroke-width: 3.5; stroke-linecap: round"/>
   </g>
   <g id="text_4">
    <!-- $\bar{z}$ -->
    <g style="fill: #b84a35" transform="translate(138.6 398.8) scale(0.4 -0.4)">
     <defs>
      <path id="Cmr10-b9" d="M 441 3553 
L 441 3775 
L 2753 3775 
L 2753 3553 
L 441 3553 
z
" transform="scale(0.015625)"/>
     </defs>
     <use xlink:href="#Cmr10-b9" transform="translate(3.730469 2.015625)"/>
     <use xlink:href="#Cmmi10-7a" transform="translate(0 0.84375)"/>
    </g>
   </g>
   <g id="text_5">
    <!-- Square layout -->
    <g style="fill: #2c2825" transform="translate(96.095 500) scale(0.36 -0.36)">
     <defs>
      <path id="DejaVuSerif-Bold-53" d="M 494 225 
L 494 1331 
L 891 1331 
Q 981 806 1318 547 
Q 1656 288 2253 288 
Q 2738 288 2991 472 
Q 3244 656 3244 1013 
Q 3244 1294 3072 1450 
Q 2900 1606 2363 1741 
L 1663 1913 
Q 978 2088 700 2398 
Q 422 2709 422 3284 
Q 422 3978 883 4364 
Q 1344 4750 2175 4750 
Q 2584 4750 3026 4681 
Q 3469 4613 3944 4475 
L 3944 3444 
L 3547 3444 
Q 3456 3925 3150 4148 
Q 2844 4372 2278 4372 
Q 1816 4372 1580 4211 
Q 1344 4050 1344 3731 
Q 1344 3441 1506 3289 
Q 1669 3138 2303 2975 
L 3003 2803 
Q 3653 2641 3945 2297 
Q 4238 1953 4238 1350 
Q 4238 644 3750 276 
Q 3263 -91 2316 -91 
Q 1859 -91 1409 -12 
Q 959 66 494 225 
z
" transform="scale(0.015625)"/>
      <path id="DejaVuSerif-Bold-71" d="M 3853 2944 
L 3853 -953 
L 4325 -953 
L 4325 -1331 
L 2234 -1331 
L 2234 -953 
L 2747 -953 
L 2747 422 
Q 2606 163 2367 36 
Q 2128 -91 1778 -91 
Q 1072 -91 667 378 
Q 263 847 263 1663 
Q 263 2481 667 2947 
Q 1072 3413 1778 3413 
Q 2128 3413 2367 3286 
Q 2606 3159 2747 2900 
L 2747 3322 
L 4325 3322 
L 4325 2944 
L 3853 2944 
z
M 2747 1825 
Q 2747 2406 2597 2665 
Q 2447 2925 2119 2925 
Q 1775 2925 1636 2651 
Q 1497 2378 1497 1663 
Q 1497 947 1637 672 
Q 1778 397 2119 397 
Q 2447 397 2597 656 
Q 2747 916 2747 1497 
L 2747 1825 
z
" transform="scale(0.015625)"/>
      <path id="DejaVuSerif-Bold-75" d="M 3963 3322 
L 3963 378 
L 4434 378 
L 4434 0 
L 2853 0 
L 2853 469 
Q 2656 172 2400 40 
Q 2144 -91 1753 -91 
Q 1194 -91 908 239 
Q 622 569 622 1209 
L 622 2944 
L 147 2944 
L 147 3322 
L 1728 3322 
L 1728 1381 
Q 1728 763 1831 595 
Q 1934 428 2209 428 
Q 2544 428 2698 675 
Q 2853 922 2853 1459 
L 2853 2944 
L 2450 2944 
L 2450 3322 
L 3963 3322 
z
" transform="scale(0.015625)"/>
      <path id="DejaVuSerif-Bold-61" d="M 3525 2041 
L 3525 378 
L 4000 378 
L 4000 0 
L 2419 0 
L 2419 422 
Q 2200 159 1931 34 
Q 1663 -91 1319 -91 
Q 809 -91 536 182 
Q 263 456 263 966 
Q 263 1525 655 1803 
Q 1047 2081 1838 2081 
L 2419 2081 
L 2419 2278 
Q 2419 2681 2228 2873 
Q 2038 3066 1638 3066 
Q 1306 3066 1126 2930 
Q 947 2794 872 2484 
L 519 2484 
L 519 3200 
Q 816 3306 1134 3359 
Q 1453 3413 1806 3413 
Q 2697 3413 3111 3081 
Q 3525 2750 3525 2041 
z
M 2419 1044 
L 2419 1709 
L 2003 1709 
Q 1694 1709 1528 1540 
Q 1363 1372 1363 1056 
Q 1363 741 1483 584 
Q 1603 428 1850 428 
Q 2106 428 2262 597 
Q 2419 766 2419 1044 
z
" transform="scale(0.015625)"/>
      <path id="DejaVuSerif-Bold-72" d="M 3438 3359 
L 3438 2369 
L 3084 2369 
Q 3066 2634 2941 2764 
Q 2816 2894 2578 2894 
Q 2216 2894 2006 2575 
Q 1797 2256 1797 1691 
L 1797 378 
L 2400 378 
L 2400 0 
L 219 0 
L 219 378 
L 691 378 
L 691 2944 
L 184 2944 
L 184 3322 
L 1797 3322 
L 1797 2731 
Q 1959 3078 2226 3245 
Q 2494 3413 2881 3413 
Q 2978 3413 3117 3398 
Q 3256 3384 3438 3359 
z
" transform="scale(0.015625)"/>
      <path id="DejaVuSerif-Bold-65" d="M 2566 1875 
Q 2566 2531 2444 2795 
Q 2322 3059 2028 3059 
Q 1744 3059 1620 2800 
Q 1497 2541 1497 1931 
L 1497 1875 
L 2566 1875 
z
M 3781 1503 
L 1497 1503 
L 1497 1478 
Q 1497 834 1690 548 
Q 1884 263 2316 263 
Q 2675 263 2897 453 
Q 3119 644 3181 1006 
L 3700 1006 
Q 3566 441 3166 175 
Q 2766 -91 2047 -91 
Q 1184 -91 723 364 
Q 263 819 263 1663 
Q 263 2488 734 2950 
Q 1206 3413 2047 3413 
Q 2872 3413 3312 2927 
Q 3753 2441 3781 1503 
z
" transform="scale(0.015625)"/>
      <path id="DejaVuSerif-Bold-20" transform="scale(0.015625)"/>
      <path id="DejaVuSerif-Bold-6c" d="M 1797 378 
L 2272 378 
L 2272 0 
L 219 0 
L 219 378 
L 691 378 
L 691 4488 
L 219 4488 
L 219 4863 
L 1797 4863 
L 1797 378 
z
" transform="scale(0.015625)"/>
      <path id="DejaVuSerif-Bold-79" d="M 1997 -750 
Q 1847 -1116 1634 -1269 
Q 1422 -1422 1063 -1422 
Q 909 -1422 721 -1387 
Q 534 -1353 313 -1288 
L 313 -594 
L 666 -597 
Q 675 -838 779 -953 
Q 884 -1069 1094 -1069 
Q 1297 -1069 1422 -958 
Q 1547 -847 1672 -538 
L 1722 -422 
L 275 2944 
L -84 2944 
L -84 3322 
L 1831 3322 
L 1831 2944 
L 1434 2944 
L 2278 978 
L 3066 2944 
L 2625 2944 
L 2625 3322 
L 3872 3322 
L 3872 2944 
L 3469 2944 
L 1997 -750 
z
" transform="scale(0.015625)"/>
      <path id="DejaVuSerif-Bold-6f" d="M 2138 263 
Q 2488 263 2630 563 
Q 2772 863 2772 1663 
Q 2772 2463 2631 2761 
Q 2491 3059 2138 3059 
Q 1784 3059 1640 2757 
Q 1497 2456 1497 1663 
Q 1497 869 1640 566 
Q 1784 263 2138 263 
z
M 2138 -91 
Q 1259 -91 761 376 
Q 263 844 263 1663 
Q 263 2484 761 2948 
Q 1259 3413 2138 3413 
Q 3019 3413 3516 2948 
Q 4013 2484 4013 1663 
Q 4013 844 3514 376 
Q 3016 -91 2138 -91 
z
" transform="scale(0.015625)"/>
      <path id="DejaVuSerif-Bold-74" d="M 634 2944 
L 153 2944 
L 153 3322 
L 634 3322 
L 634 4353 
L 1741 4353 
L 1741 3322 
L 2663 3322 
L 2663 2944 
L 1741 2944 
L 1741 909 
Q 1741 475 1809 369 
Q 1878 263 2059 263 
Q 2259 263 2356 397 
Q 2453 531 2459 813 
L 2925 813 
Q 2897 313 2651 111 
Q 2406 -91 1806 -91 
Q 1122 -91 878 123 
Q 634 338 634 909 
L 634 2944 
z
" transform="scale(0.015625)"/>
     </defs>
     <use xlink:href="#DejaVuSerif-Bold-53"/>
     <use xlink:href="#DejaVuSerif-Bold-71" transform="translate(72.216797 0)"/>
     <use xlink:href="#DejaVuSerif-Bold-75" transform="translate(142.138672 0)"/>
     <use xlink:href="#DejaVuSerif-Bold-61" transform="translate(214.84375 0)"/>
     <use xlink:href="#DejaVuSerif-Bold-72" transform="translate(279.638672 0)"/>
     <use xlink:href="#DejaVuSerif-Bold-65" transform="translate(332.324219 0)"/>
     <use xlink:href="#DejaVuSerif-Bold-20" transform="translate(395.947266 0)"/>
     <use xlink:href="#DejaVuSerif-Bold-6c" transform="translate(430.761719 0)"/>
     <use xlink:href="#DejaVuSerif-Bold-61" transform="translate(468.75 0)"/>
     <use xlink:href="#DejaVuSerif-Bold-79" transform="translate(533.544922 0)"/>
     <use xlink:href="#DejaVuSerif-Bold-6f" transform="translate(591.650391 0)"/>
     <use xlink:href="#DejaVuSerif-Bold-75" transform="translate(658.349609 0)"/>
     <use xlink:href="#DejaVuSerif-Bold-74" transform="translate(731.054688 0)"/>
    </g>
   </g>
   <g id="text_6">
    <!-- $H = H^{\dagger}$  is algebraic -->
    <g style="fill: #a59a8a" transform="translate(107.95 548.4) scale(0.26 -0.26)">
     <defs>
      <path id="Cmmi10-48" d="M 300 0 
Q 238 0 238 84 
Q 241 100 250 139 
Q 259 178 276 201 
Q 294 225 319 225 
Q 709 225 863 269 
Q 947 297 984 441 
L 1863 3956 
Q 1875 4019 1875 4044 
Q 1875 4113 1797 4122 
Q 1678 4147 1338 4147 
Q 1275 4147 1275 4231 
Q 1297 4313 1309 4342 
Q 1322 4372 1381 4372 
L 3103 4372 
Q 3169 4372 3169 4288 
Q 3166 4272 3156 4234 
Q 3147 4197 3131 4172 
Q 3116 4147 3084 4147 
Q 2694 4147 2541 4103 
Q 2456 4072 2419 3928 
L 2034 2388 
L 3956 2388 
L 4347 3956 
Q 4359 4019 4359 4044 
Q 4359 4113 4281 4122 
Q 4159 4147 3822 4147 
Q 3756 4147 3756 4231 
Q 3778 4313 3790 4342 
Q 3803 4372 3866 4372 
L 5588 4372 
Q 5650 4372 5650 4288 
Q 5647 4272 5637 4233 
Q 5628 4194 5611 4170 
Q 5594 4147 5569 4147 
Q 5178 4147 5025 4103 
Q 4941 4075 4903 3928 
L 4025 416 
Q 4013 353 4013 325 
Q 4013 259 4091 250 
Q 4213 225 4550 225 
Q 4616 225 4616 141 
Q 4597 66 4578 33 
Q 4559 0 4506 0 
L 2784 0 
Q 2719 0 2719 84 
Q 2731 131 2737 153 
Q 2744 175 2761 200 
Q 2778 225 2803 225 
Q 3194 225 3347 269 
Q 3431 297 3469 441 
L 3897 2163 
L 1978 2163 
L 1544 416 
Q 1528 338 1528 325 
Q 1528 259 1606 250 
Q 1728 225 2069 225 
Q 2131 225 2131 141 
Q 2109 56 2095 28 
Q 2081 0 2022 0 
L 300 0 
z
" transform="scale(0.015625)"/>
      <path id="Cmr10-3d" d="M 481 850 
Q 428 850 393 890 
Q 359 931 359 978 
Q 359 1031 393 1068 
Q 428 1106 481 1106 
L 4500 1106 
Q 4547 1106 4581 1068 
Q 4616 1031 4616 978 
Q 4616 931 4581 890 
Q 4547 850 4500 850 
L 481 850 
z
M 481 2094 
Q 428 2094 393 2131 
Q 359 2169 359 2222 
Q 359 2269 393 2309 
Q 428 2350 481 2350 
L 4500 2350 
Q 4547 2350 4581 2309 
Q 4616 2269 4616 2222 
Q 4616 2169 4581 2131 
Q 4547 2094 4500 2094 
L 481 2094 
z
" transform="scale(0.015625)"/>
      <path id="STIXGeneral-Regular-2020" d="M 1536 -954 
L 1536 -166 
Q 1536 282 1459 790 
Q 1382 1299 1267 1619 
Q 1536 1894 1536 2803 
Q 1242 2778 954 2662 
Q 749 2586 659 2586 
Q 378 2586 378 2861 
Q 378 2982 448 3062 
Q 518 3142 627 3142 
Q 730 3142 941 3059 
Q 1280 2925 1536 2918 
Q 1536 3181 1507 3337 
Q 1478 3494 1382 3738 
Q 1306 3930 1306 4038 
Q 1306 4147 1398 4236 
Q 1491 4326 1606 4326 
Q 1722 4326 1814 4236 
Q 1907 4147 1907 4038 
Q 1907 3942 1824 3738 
Q 1728 3501 1702 3344 
Q 1677 3187 1677 2918 
Q 1933 2925 2266 3059 
Q 2470 3142 2586 3142 
Q 2688 3142 2758 3062 
Q 2829 2982 2829 2860 
Q 2829 2739 2761 2662 
Q 2694 2586 2592 2586 
Q 2458 2586 2253 2662 
Q 1952 2778 1677 2803 
Q 1677 1901 1939 1619 
Q 1677 941 1677 -166 
L 1677 -954 
L 1536 -954 
z
" transform="scale(0.015625)"/>
      <path id="DejaVuSerif-Italic-20" transform="scale(0.015625)"/>
      <path id="DejaVuSerif-Italic-69" d="M 1009 4353 
Q 1038 4497 1163 4603 
Q 1288 4709 1434 4709 
Q 1578 4709 1663 4603 
Q 1728 4522 1728 4422 
Q 1728 4388 1719 4353 
Q 1691 4206 1567 4103 
Q 1444 4000 1297 4000 
Q 1150 4000 1066 4103 
Q 1003 4181 1003 4281 
Q 1003 4316 1009 4353 
z
M 963 331 
L 1506 331 
L 1444 0 
L 325 0 
L 903 2988 
L 353 2988 
L 419 3322 
L 1544 3322 
L 963 331 
z
" transform="scale(0.015625)"/>
      <path id="DejaVuSerif-Italic-73" d="M 222 959 
L 553 959 
Q 541 869 541 788 
Q 541 219 1313 219 
Q 2088 219 2200 788 
Q 2209 844 2209 944 
Q 2209 1041 2103 1158 
Q 1997 1275 1550 1428 
L 1159 1569 
Q 759 1706 629 1882 
Q 500 2059 500 2263 
Q 500 2344 516 2438 
Q 606 2894 990 3153 
Q 1375 3413 1931 3413 
Q 2484 3413 3066 3144 
L 2925 2419 
L 2594 2419 
Q 2606 2491 2606 2553 
Q 2606 2781 2448 2942 
Q 2291 3103 1925 3103 
Q 1191 3103 1091 2591 
Q 1078 2538 1078 2444 
Q 1078 2347 1179 2237 
Q 1281 2128 1678 1997 
L 2106 1856 
Q 2550 1709 2716 1488 
Q 2831 1331 2831 1178 
Q 2831 522 2306 181 
Q 1894 -91 1262 -91 
Q 631 -91 72 184 
L 222 959 
z
" transform="scale(0.015625)"/>
      <path id="DejaVuSerif-Italic-61" d="M 2325 519 
Q 1909 -91 1238 -91 
Q 688 -91 409 281 
Q 216 544 216 919 
Q 216 1078 250 1256 
Q 463 2359 1231 2928 
Q 1884 3413 2675 3413 
Q 3206 3413 3388 3322 
L 2806 331 
L 3300 331 
L 3238 0 
L 2225 0 
L 2325 519 
z
M 822 938 
Q 822 269 1469 269 
Q 1863 269 2130 583 
Q 2397 897 2516 1497 
L 2806 3003 
L 2806 3003 
Q 2806 3094 2556 3094 
Q 1956 3094 1491 2625 
Q 1028 2153 863 1297 
Q 822 1097 822 938 
z
" transform="scale(0.015625)"/>
      <path id="DejaVuSerif-Italic-6c" d="M 903 331 
L 1447 331 
L 1384 0 
L 266 0 
L 1147 4531 
L 594 4531 
L 656 4863 
L 1784 4863 
L 903 331 
z
" transform="scale(0.015625)"/>
      <path id="DejaVuSerif-Italic-67" d="M 3822 3322 
L 3188 72 
Q 3044 -672 2581 -1031 
Q 2078 -1422 1381 -1422 
Q 1053 -1422 765 -1362 
Q 478 -1303 225 -1184 
L 363 -488 
L 663 -488 
Q 653 -813 834 -963 
Q 1016 -1113 1406 -1113 
Q 1913 -1113 2203 -825 
Q 2494 -544 2613 72 
L 2700 519 
Q 2472 206 2181 57 
Q 1891 -91 1525 -91 
Q 975 -91 697 281 
Q 522 516 503 841 
Q 491 1031 534 1256 
Q 750 2359 1516 2928 
Q 2169 3409 2931 3413 
Q 3631 3416 3822 3322 
z
M 3184 2988 
Q 3181 3094 2844 3094 
Q 2234 3094 1775 2625 
Q 1316 2153 1147 1297 
Q 1100 1044 1113 853 
Q 1125 659 1203 528 
Q 1356 269 1756 269 
Q 2194 269 2484 583 
Q 2775 897 2891 1497 
L 2953 1825 
L 3184 2988 
z
" transform="scale(0.015625)"/>
      <path id="DejaVuSerif-Italic-65" d="M 938 1275 
Q 925 1156 925 1050 
Q 925 756 1031 563 
Q 1216 219 1709 219 
Q 2072 219 2250 328 
Q 2569 525 2644 778 
L 3066 778 
Q 2941 381 2475 103 
Q 2150 -91 1506 -91 
Q 863 -91 516 388 
Q 272 722 272 1206 
Q 272 1419 319 1659 
Q 472 2450 1000 2931 
Q 1528 3413 2278 3413 
Q 3500 3413 3500 2547 
Q 3500 1913 2859 1603 
Q 2206 1288 938 1275 
z
M 2541 1975 
Q 2891 2181 2891 2569 
Q 2891 3103 2181 3103 
Q 1763 3103 1472 2784 
Q 1181 2466 1003 1606 
Q 2006 1653 2541 1975 
z
" transform="scale(0.015625)"/>
      <path id="DejaVuSerif-Italic-62" d="M 1153 4531 
L 600 4531 
L 666 4863 
L 1794 4863 
L 1394 2803 
Q 1622 3116 1912 3264 
Q 2203 3413 2588 3413 
Q 3200 3413 3494 2928 
Q 3688 2609 3688 2163 
Q 3688 1928 3634 1663 
Q 3481 881 3000 395 
Q 2519 -91 1906 -91 
Q 1522 -91 1289 57 
Q 1056 206 950 519 
L 850 0 
L 275 0 
L 1153 4531 
z
M 1141 1497 
Q 1091 1250 1091 1053 
Q 1091 769 1191 581 
Q 1359 269 1797 269 
Q 2238 269 2533 622 
Q 2828 975 2963 1663 
Q 3025 1978 3025 2225 
Q 3025 2513 2938 2703 
Q 2781 3053 2338 3053 
Q 1900 3053 1609 2737 
Q 1319 2422 1203 1825 
L 1141 1497 
z
" transform="scale(0.015625)"/>
      <path id="DejaVuSerif-Italic-72" d="M 3375 3328 
L 3213 2497 
L 2881 2497 
Q 2891 2559 2891 2613 
Q 2891 2775 2816 2866 
Q 2719 2988 2484 2988 
Q 2059 2988 1775 2694 
Q 1491 2400 1384 1850 
L 1025 0 
L 450 0 
L 1031 2994 
L 481 2994 
L 544 3322 
L 1669 3322 
L 1556 2731 
Q 1791 3078 2089 3245 
Q 2388 3413 2769 3413 
Q 2909 3413 3059 3391 
Q 3209 3369 3375 3328 
z
" transform="scale(0.015625)"/>
      <path id="DejaVuSerif-Italic-63" d="M 3163 997 
Q 2938 466 2536 187 
Q 2134 -91 1584 -91 
Q 859 -91 513 388 
Q 272 722 272 1203 
Q 272 1419 319 1663 
Q 475 2459 1008 2936 
Q 1541 3413 2266 3413 
Q 2581 3413 2879 3339 
Q 3178 3266 3463 3116 
L 3300 2266 
L 2966 2266 
Q 2966 2309 2966 2347 
Q 2966 2722 2803 2903 
Q 2622 3103 2213 3103 
Q 1747 3103 1439 2742 
Q 1131 2381 991 1663 
Q 928 1334 928 1078 
Q 928 778 1016 581 
Q 1181 219 1650 219 
Q 2022 219 2281 412 
Q 2541 606 2700 997 
L 3163 997 
z
" transform="scale(0.015625)"/>
     </defs>
     <use xlink:href="#Cmmi10-48" transform="translate(0 0.420312)"/>
     <use xlink:href="#Cmr10-3d" transform="translate(100.664062 0.420312)"/>
     <use xlink:href="#Cmmi10-48" transform="translate(195.908203 0.420312)"/>
     <use xlink:href="#STIXGeneral-Regular-2020" transform="translate(290.383203 38.684375) scale(0.7)"/>
     <use xlink:href="#DejaVuSerif-Italic-20" transform="translate(331.760536 0.420312)"/>
     <use xlink:href="#DejaVuSerif-Italic-20" transform="translate(363.547646 0.420312)"/>
     <use xlink:href="#DejaVuSerif-Italic-69" transform="translate(395.334755 0.420312)"/>
     <use xlink:href="#DejaVuSerif-Italic-73" transform="translate(427.317177 0.420312)"/>
     <use xlink:href="#DejaVuSerif-Italic-20" transform="translate(478.635536 0.420312)"/>
     <use xlink:href="#DejaVuSerif-Italic-61" transform="translate(510.422646 0.420312)"/>
     <use xlink:href="#DejaVuSerif-Italic-6c" transform="translate(570.041786 0.420312)"/>
     <use xlink:href="#DejaVuSerif-Italic-67" transform="translate(602.024208 0.420312)"/>
     <use xlink:href="#DejaVuSerif-Italic-65" transform="translate(666.03788 0.420312)"/>
     <use xlink:href="#DejaVuSerif-Italic-62" transform="translate(725.217567 0.420312)"/>
     <use xlink:href="#DejaVuSerif-Italic-72" transform="translate(789.231239 0.420312)"/>
     <use xlink:href="#DejaVuSerif-Italic-61" transform="translate(837.033974 0.420312)"/>
     <use xlink:href="#DejaVuSerif-Italic-69" transform="translate(896.653114 0.420312)"/>
     <use xlink:href="#DejaVuSerif-Italic-63" transform="translate(928.635536 0.420312)"/>
    </g>
   </g>
  </g>
  <g id="axes_2">
   <g id="patch_6">
    <path d="M 832.930233 72.439101 
L 1035.547311 275.05618 
L 832.930233 477.673258 
L 630.313154 275.05618 
L 832.930233 72.439101 
z
" clip-path="url(#p6c800837e0)" style="fill: none; stroke: #2c2825; stroke-width: 3.2; stroke-linejoin: miter"/>
   </g>
   <g id="line2d_13">
    <path d="M 630.313154 275.05618 
L 1035.547311 275.05618 
" clip-path="url(#p6c800837e0)" style="fill: none; stroke: #a59a8a; stroke-opacity: 0.7; stroke-width: 1.6; stroke-linecap: square"/>
   </g>
   <g id="line2d_14">
    <path d="M 832.930233 477.673258 
L 832.930233 72.439101 
" clip-path="url(#p6c800837e0)" style="fill: none; stroke: #a59a8a; stroke-opacity: 0.7; stroke-width: 1.6; stroke-linecap: square"/>
   </g>
   <g id="line2d_15">
    <path d="M 832.930233 511.766292 
L 832.930233 50.804494 
" clip-path="url(#p6c800837e0)" style="fill: none; stroke-dasharray: 10.8,9; stroke-dashoffset: 0; stroke: #b84a35; stroke-opacity: 0.6; stroke-width: 1.8"/>
   </g>
   <g id="line2d_16">
    <g clip-path="url(#p6c800837e0)">
     <use xlink:href="#me126788aa2" x="832.930233" y="190.961798" style="fill: #2c2825; stroke: #2c2825"/>
    </g>
   </g>
   <g id="line2d_17">
    <g clip-path="url(#p6c800837e0)">
     <use xlink:href="#me126788aa2" x="832.930233" y="359.150562" style="fill: #2c2825; stroke: #2c2825"/>
    </g>
   </g>
   <g id="line2d_18">
    <g clip-path="url(#p6c800837e0)">
     <use xlink:href="#me126788aa2" x="917.024615" y="275.05618" style="fill: #2c2825; stroke: #2c2825"/>
    </g>
   </g>
   <g id="line2d_19">
    <g clip-path="url(#p6c800837e0)">
     <use xlink:href="#me126788aa2" x="748.835851" y="275.05618" style="fill: #2c2825; stroke: #2c2825"/>
    </g>
   </g>
   <g id="text_7">
    <!-- axis of symmetry -->
    <g style="fill: #b84a35; opacity: 0.85" transform="translate(842.274053 53.919101) scale(0.26 -0.26)">
     <defs>
      <path id="DejaVuSerif-Italic-78" d="M 409 0 
L 19 0 
L 1484 1594 
L 747 2988 
L 338 2988 
L 400 3322 
L 1244 3322 
L 1934 2028 
L 3125 3322 
L 3516 3322 
L 2078 1759 
L 2838 331 
L 3272 331 
L 3209 0 
L 2338 0 
L 1631 1325 
L 409 0 
z
" transform="scale(0.015625)"/>
      <path id="DejaVuSerif-Italic-6f" d="M 1644 219 
Q 2106 219 2414 584 
Q 2722 950 2859 1663 
Q 2922 1988 2922 2241 
Q 2922 2541 2834 2738 
Q 2669 3103 2206 3103 
Q 1744 3103 1436 2739 
Q 1128 2375 991 1663 
Q 928 1338 928 1088 
Q 928 784 1019 584 
Q 1184 219 1644 219 
z
M 1584 -91 
Q 859 -91 513 388 
Q 272 722 272 1203 
Q 272 1419 319 1663 
Q 472 2456 1005 2934 
Q 1538 3413 2266 3413 
Q 2994 3413 3341 2934 
Q 3578 2603 3578 2122 
Q 3578 1906 3531 1663 
Q 3378 869 2845 389 
Q 2313 -91 1584 -91 
z
" transform="scale(0.015625)"/>
      <path id="DejaVuSerif-Italic-66" d="M 3191 4078 
L 2888 4078 
Q 2900 4144 2900 4203 
Q 2900 4347 2825 4434 
Q 2719 4556 2472 4556 
Q 2150 4556 1984 4379 
Q 1819 4203 1731 3750 
L 1647 3322 
L 2575 3322 
L 2509 2988 
L 1581 2988 
L 963 -206 
Q 853 -763 509 -1047 
Q 166 -1331 -394 -1331 
L -356 -1025 
Q -28 -1025 131 -850 
Q 297 -663 388 -206 
L 1006 2988 
L 456 2988 
L 522 3322 
L 1072 3322 
L 1153 3738 
Q 1263 4297 1606 4578 
Q 1950 4863 2509 4863 
Q 2719 4863 2920 4825 
Q 3122 4788 3316 4709 
L 3191 4078 
z
" transform="scale(0.015625)"/>
      <path id="DejaVuSerif-Italic-79" d="M 3681 3294 
Q 3372 1506 2828 563 
Q 2031 -822 1391 -1238 
Q 1106 -1422 356 -1422 
Q 209 -1422 60 -1397 
Q -88 -1372 -238 -1325 
L -113 -691 
L 181 -691 
Q 175 -741 175 -788 
Q 175 -919 231 -994 
Q 309 -1100 513 -1100 
Q 1063 -1100 1541 -622 
L 756 2988 
L 378 2988 
L 444 3322 
L 1303 3322 
L 2041 25 
Q 2544 778 2666 1088 
Q 3059 2059 3138 2959 
L 2759 2959 
L 2825 3294 
L 3681 3294 
z
" transform="scale(0.015625)"/>
      <path id="DejaVuSerif-Italic-6d" d="M 3503 2675 
Q 3741 3041 4034 3227 
Q 4328 3413 4672 3413 
Q 5194 3413 5388 3088 
Q 5503 2894 5503 2578 
Q 5503 2372 5453 2113 
L 5106 331 
L 5625 331 
L 5563 0 
L 4469 0 
L 4866 2047 
Q 4913 2291 4913 2466 
Q 4913 2659 4856 2772 
Q 4750 2988 4403 2988 
Q 4019 2988 3761 2697 
Q 3503 2406 3394 1850 
L 3034 0 
L 2459 0 
L 2863 2069 
Q 2906 2303 2906 2472 
Q 2906 2666 2850 2775 
Q 2741 2988 2394 2988 
Q 2009 2988 1751 2697 
Q 1494 2406 1384 1850 
L 1025 0 
L 450 0 
L 1031 2994 
L 481 2994 
L 544 3322 
L 1669 3322 
L 1556 2731 
Q 1778 3063 2059 3238 
Q 2341 3413 2653 3413 
Q 3041 3413 3262 3220 
Q 3484 3028 3503 2675 
z
" transform="scale(0.015625)"/>
      <path id="DejaVuSerif-Italic-74" d="M 856 2988 
L 350 2988 
L 416 3322 
L 922 3322 
L 1122 4353 
L 1700 4353 
L 1500 3322 
L 2581 3322 
L 2516 2988 
L 1434 2988 
L 1025 878 
Q 978 631 978 488 
Q 978 388 1000 338 
Q 1059 219 1278 219 
Q 1503 219 1633 351 
Q 1763 484 1825 781 
L 2259 781 
Q 2147 328 1884 118 
Q 1622 -91 1169 -91 
Q 672 -91 506 131 
Q 406 266 406 516 
Q 406 675 447 878 
L 856 2988 
z
" transform="scale(0.015625)"/>
     </defs>
     <use xlink:href="#DejaVuSerif-Italic-61"/>
     <use xlink:href="#DejaVuSerif-Italic-78" transform="translate(59.619141 0)"/>
     <use xlink:href="#DejaVuSerif-Italic-69" transform="translate(116.015625 0)"/>
     <use xlink:href="#DejaVuSerif-Italic-73" transform="translate(147.998047 0)"/>
     <use xlink:href="#DejaVuSerif-Italic-20" transform="translate(199.316406 0)"/>
     <use xlink:href="#DejaVuSerif-Italic-6f" transform="translate(231.103516 0)"/>
     <use xlink:href="#DejaVuSerif-Italic-66" transform="translate(291.308594 0)"/>
     <use xlink:href="#DejaVuSerif-Italic-20" transform="translate(328.320312 0)"/>
     <use xlink:href="#DejaVuSerif-Italic-73" transform="translate(360.107422 0)"/>
     <use xlink:href="#DejaVuSerif-Italic-79" transform="translate(411.425781 0)"/>
     <use xlink:href="#DejaVuSerif-Italic-6d" transform="translate(467.919922 0)"/>
     <use xlink:href="#DejaVuSerif-Italic-6d" transform="translate(562.744141 0)"/>
     <use xlink:href="#DejaVuSerif-Italic-65" transform="translate(657.568359 0)"/>
     <use xlink:href="#DejaVuSerif-Italic-74" transform="translate(716.748047 0)"/>
     <use xlink:href="#DejaVuSerif-Italic-72" transform="translate(756.933594 0)"/>
     <use xlink:href="#DejaVuSerif-Italic-79" transform="translate(804.736328 0)"/>
    </g>
   </g>
   <g id="patch_7">
    <path d="M 832.930233 188.964317 
Q 832.930233 173.441668 832.930233 161.832138 
" style="fill: none; stroke: #2c2825; stroke-width: 3.5; stroke-linecap: round"/>
    <path d="M 827.330233 173.032138 
L 832.930233 161.832138 
L 838.530233 173.032138 
z
" style="fill: #2c2825; stroke: #2c2825; stroke-width: 3.5; stroke-linecap: round"/>
   </g>
   <g id="text_8">
    <!-- $a$ -->
    <g style="fill: #2c2825" transform="translate(822.330233 125.555056) scale(0.4 -0.4)">
     <use xlink:href="#Cmmi10-61" transform="translate(0 0.8125)"/>
    </g>
   </g>
   <g id="patch_8">
    <path d="M 832.930233 357.153081 
Q 832.930233 341.630432 832.930233 330.020902 
" style="fill: none; stroke: #2c2825; stroke-width: 3.5; stroke-linecap: round"/>
    <path d="M 827.330233 341.220902 
L 832.930233 330.020902 
L 838.530233 341.220902 
z
" style="fill: #2c2825; stroke: #2c2825; stroke-width: 3.5; stroke-linecap: round"/>
   </g>
   <g id="text_9">
    <!-- $d$ -->
    <g style="fill: #2c2825" transform="translate(822.330233 424.557303) scale(0.4 -0.4)">
     <use xlink:href="#Cmmi10-64" transform="translate(0 0.609375)"/>
    </g>
   </g>
   <g id="patch_9">
    <path d="M 918.499414 273.70428 
Q 931.04024 262.208523 940.696494 253.356957 
" style="fill: none; stroke: #b84a35; stroke-width: 3.5; stroke-linecap: round"/>
    <path d="M 928.656309 256.79701 
L 940.696494 253.356957 
L 936.224425 265.053136 
z
" style="fill: #b84a35; stroke: #b84a35; stroke-width: 3.5; stroke-linecap: round"/>
   </g>
   <g id="text_10">
    <!-- $z$ -->
    <g style="fill: #b84a35" transform="translate(988.66057 286.09368) scale(0.4 -0.4)">
     <use xlink:href="#Cmmi10-7a" transform="translate(0 0.8125)"/>
    </g>
   </g>
   <g id="patch_10">
    <path d="M 747.361051 273.70428 
Q 734.820225 262.208523 725.163972 253.356957 
" style="fill: none; stroke: #b84a35; stroke-width: 3.5; stroke-linecap: round"/>
    <path d="M 729.63604 265.053136 
L 725.163972 253.356957 
L 737.204156 256.79701 
z
" style="fill: #b84a35; stroke: #b84a35; stroke-width: 3.5; stroke-linecap: round"/>
   </g>
   <g id="text_11">
    <!-- $\bar{z}$ -->
    <g style="fill: #b84a35" transform="translate(658.399895 286.09368) scale(0.4 -0.4)">
     <use xlink:href="#Cmr10-b9" transform="translate(3.730469 2.015625)"/>
     <use xlink:href="#Cmmi10-7a" transform="translate(0 0.84375)"/>
    </g>
   </g>
   <g id="text_12">
    <!-- Diamond layout -->
    <g style="fill: #2c2825" transform="translate(673.461483 527.339326) scale(0.36 -0.36)">
     <defs>
      <path id="DejaVuSerif-Bold-44" d="M 2100 378 
L 2534 378 
Q 3266 378 3605 847 
Q 3944 1316 3944 2338 
Q 3944 3353 3606 3820 
Q 3269 4288 2534 4288 
L 2100 4288 
L 2100 378 
z
M 300 0 
L 300 378 
L 897 378 
L 897 4288 
L 300 4288 
L 300 4666 
L 2694 4666 
Q 3950 4666 4615 4066 
Q 5281 3466 5281 2338 
Q 5281 1203 4614 601 
Q 3947 0 2694 0 
L 300 0 
z
" transform="scale(0.015625)"/>
      <path id="DejaVuSerif-Bold-69" d="M 588 4263 
Q 588 4516 763 4689 
Q 938 4863 1191 4863 
Q 1438 4863 1611 4689 
Q 1784 4516 1784 4263 
Q 1784 4016 1611 3842 
Q 1438 3669 1191 3669 
Q 938 3669 763 3841 
Q 588 4013 588 4263 
z
M 1797 378 
L 2272 378 
L 2272 0 
L 219 0 
L 219 378 
L 691 378 
L 691 2944 
L 219 2944 
L 219 3322 
L 1797 3322 
L 1797 378 
z
" transform="scale(0.015625)"/>
      <path id="DejaVuSerif-Bold-6d" d="M 3884 2778 
Q 4116 3109 4384 3261 
Q 4653 3413 5013 3413 
Q 5584 3413 5867 3089 
Q 6150 2766 6150 2113 
L 6150 378 
L 6625 378 
L 6625 0 
L 4647 0 
L 4647 378 
L 5044 378 
L 5044 1947 
Q 5044 2569 4948 2731 
Q 4853 2894 4594 2894 
Q 4300 2894 4137 2667 
Q 3975 2441 3975 2022 
L 3975 378 
L 4372 378 
L 4372 0 
L 2472 0 
L 2472 378 
L 2869 378 
L 2869 1947 
Q 2869 2569 2772 2731 
Q 2675 2894 2419 2894 
Q 2122 2894 1959 2667 
Q 1797 2441 1797 2022 
L 1797 378 
L 2194 378 
L 2194 0 
L 219 0 
L 219 378 
L 691 378 
L 691 2944 
L 219 2944 
L 219 3322 
L 1797 3322 
L 1797 2853 
Q 1991 3144 2241 3278 
Q 2491 3413 2834 3413 
Q 3241 3413 3494 3258 
Q 3747 3103 3884 2778 
z
" transform="scale(0.015625)"/>
      <path id="DejaVuSerif-Bold-6e" d="M 219 0 
L 219 378 
L 691 378 
L 691 2944 
L 219 2944 
L 219 3322 
L 1797 3322 
L 1797 2853 
Q 1997 3150 2253 3281 
Q 2509 3413 2900 3413 
Q 3459 3413 3745 3083 
Q 4031 2753 4031 2113 
L 4031 378 
L 4506 378 
L 4506 0 
L 2522 0 
L 2522 378 
L 2925 378 
L 2925 2144 
Q 2925 2566 2817 2730 
Q 2709 2894 2444 2894 
Q 2109 2894 1953 2648 
Q 1797 2403 1797 1869 
L 1797 378 
L 2203 378 
L 2203 0 
L 219 0 
z
" transform="scale(0.015625)"/>
      <path id="DejaVuSerif-Bold-64" d="M 2747 1497 
L 2747 1825 
Q 2747 2406 2597 2665 
Q 2447 2925 2119 2925 
Q 1775 2925 1636 2651 
Q 1497 2378 1497 1663 
Q 1497 947 1637 672 
Q 1778 397 2119 397 
Q 2447 397 2597 656 
Q 2747 916 2747 1497 
z
M 3853 378 
L 4325 378 
L 4325 0 
L 2747 0 
L 2747 422 
Q 2606 163 2367 36 
Q 2128 -91 1778 -91 
Q 1072 -91 667 378 
Q 263 847 263 1663 
Q 263 2481 667 2947 
Q 1072 3413 1778 3413 
Q 2128 3413 2367 3286 
Q 2606 3159 2747 2900 
L 2747 4488 
L 2272 4488 
L 2272 4863 
L 3853 4863 
L 3853 378 
z
" transform="scale(0.015625)"/>
     </defs>
     <use xlink:href="#DejaVuSerif-Bold-44"/>
     <use xlink:href="#DejaVuSerif-Bold-69" transform="translate(86.71875 0)"/>
     <use xlink:href="#DejaVuSerif-Bold-61" transform="translate(124.707031 0)"/>
     <use xlink:href="#DejaVuSerif-Bold-6d" transform="translate(189.501953 0)"/>
     <use xlink:href="#DejaVuSerif-Bold-6f" transform="translate(295.3125 0)"/>
     <use xlink:href="#DejaVuSerif-Bold-6e" transform="translate(362.011719 0)"/>
     <use xlink:href="#DejaVuSerif-Bold-64" transform="translate(434.716797 0)"/>
     <use xlink:href="#DejaVuSerif-Bold-20" transform="translate(504.638672 0)"/>
     <use xlink:href="#DejaVuSerif-Bold-6c" transform="translate(539.453125 0)"/>
     <use xlink:href="#DejaVuSerif-Bold-61" transform="translate(577.441406 0)"/>
     <use xlink:href="#DejaVuSerif-Bold-79" transform="translate(642.236328 0)"/>
     <use xlink:href="#DejaVuSerif-Bold-6f" transform="translate(700.341797 0)"/>
     <use xlink:href="#DejaVuSerif-Bold-75" transform="translate(767.041016 0)"/>
     <use xlink:href="#DejaVuSerif-Bold-74" transform="translate(839.746094 0)"/>
    </g>
   </g>
   <g id="text_13">
    <!-- $z$ and $\bar{z}$  are literal mirror images -->
    <g style="fill: #a59a8a" transform="translate(616.480233 558.485393) scale(0.26 -0.26)">
     <defs>
      <path id="DejaVuSerif-Italic-6e" d="M 450 0 
L 1031 2988 
L 481 2988 
L 544 3322 
L 1669 3322 
L 1556 2731 
Q 1781 3069 2068 3241 
Q 2356 3413 2694 3413 
Q 3244 3413 3444 3097 
Q 3563 2906 3563 2588 
Q 3563 2378 3509 2113 
L 3163 331 
L 3675 331 
L 3613 0 
L 2522 0 
L 2897 1931 
Q 2959 2253 2959 2469 
Q 2959 2659 2909 2769 
Q 2803 2994 2425 2994 
Q 2025 2994 1759 2701 
Q 1494 2409 1384 1850 
L 1025 0 
L 450 0 
z
" transform="scale(0.015625)"/>
      <path id="DejaVuSerif-Italic-64" d="M 3841 4863 
L 2897 0 
L 2322 0 
L 2422 519 
Q 2191 206 1902 57 
Q 1613 -91 1228 -91 
Q 616 -91 322 394 
Q 125 716 125 1166 
Q 125 1397 178 1663 
Q 331 2444 812 2928 
Q 1294 3413 1909 3413 
Q 2294 3413 2525 3264 
Q 2756 3116 2866 2803 
L 3200 4531 
L 2656 4531 
L 2722 4863 
L 3841 4863 
z
M 2613 1497 
L 2675 1825 
Q 2722 2069 2722 2266 
Q 2722 2550 2622 2738 
Q 2456 3053 2019 3053 
Q 1575 3053 1279 2703 
Q 984 2353 850 1663 
Q 788 1347 788 1103 
Q 788 813 875 622 
Q 1031 269 1475 269 
Q 1913 269 2203 583 
Q 2494 897 2613 1497 
z
" transform="scale(0.015625)"/>
     </defs>
     <use xlink:href="#Cmmi10-7a" transform="translate(0 0.015625)"/>
     <use xlink:href="#DejaVuSerif-Italic-20" transform="translate(46.484375 0.015625)"/>
     <use xlink:href="#DejaVuSerif-Italic-61" transform="translate(78.271484 0.015625)"/>
     <use xlink:href="#DejaVuSerif-Italic-6e" transform="translate(137.890625 0.015625)"/>
     <use xlink:href="#DejaVuSerif-Italic-64" transform="translate(202.294922 0.015625)"/>
     <use xlink:href="#DejaVuSerif-Italic-20" transform="translate(266.308594 0.015625)"/>
     <use xlink:href="#Cmr10-b9" transform="translate(301.826172 1.1875)"/>
     <use xlink:href="#Cmmi10-7a" transform="translate(298.095703 0.015625)"/>
     <use xlink:href="#DejaVuSerif-Italic-20" transform="translate(344.580078 0.015625)"/>
     <use xlink:href="#DejaVuSerif-Italic-20" transform="translate(376.367188 0.015625)"/>
     <use xlink:href="#DejaVuSerif-Italic-61" transform="translate(408.154297 0.015625)"/>
     <use xlink:href="#DejaVuSerif-Italic-72" transform="translate(467.773438 0.015625)"/>
     <use xlink:href="#DejaVuSerif-Italic-65" transform="translate(515.576172 0.015625)"/>
     <use xlink:href="#DejaVuSerif-Italic-20" transform="translate(574.755859 0.015625)"/>
     <use xlink:href="#DejaVuSerif-Italic-6c" transform="translate(606.542969 0.015625)"/>
     <use xlink:href="#DejaVuSerif-Italic-69" transform="translate(638.525391 0.015625)"/>
     <use xlink:href="#DejaVuSerif-Italic-74" transform="translate(670.507812 0.015625)"/>
     <use xlink:href="#DejaVuSerif-Italic-65" transform="translate(710.693359 0.015625)"/>
     <use xlink:href="#DejaVuSerif-Italic-72" transform="translate(769.873047 0.015625)"/>
     <use xlink:href="#DejaVuSerif-Italic-61" transform="translate(817.675781 0.015625)"/>
     <use xlink:href="#DejaVuSerif-Italic-6c" transform="translate(877.294922 0.015625)"/>
     <use xlink:href="#DejaVuSerif-Italic-20" transform="translate(909.277344 0.015625)"/>
     <use xlink:href="#DejaVuSerif-Italic-6d" transform="translate(941.064453 0.015625)"/>
     <use xlink:href="#DejaVuSerif-Italic-69" transform="translate(1035.888672 0.015625)"/>
     <use xlink:href="#DejaVuSerif-Italic-72" transform="translate(1067.871094 0.015625)"/>
     <use xlink:href="#DejaVuSerif-Italic-72" transform="translate(1115.673828 0.015625)"/>
     <use xlink:href="#DejaVuSerif-Italic-6f" transform="translate(1163.476562 0.015625)"/>
     <use xlink:href="#DejaVuSerif-Italic-72" transform="translate(1223.681641 0.015625)"/>
     <use xlink:href="#DejaVuSerif-Italic-20" transform="translate(1271.484375 0.015625)"/>
     <use xlink:href="#DejaVuSerif-Italic-69" transform="translate(1303.271484 0.015625)"/>
     <use xlink:href="#DejaVuSerif-Italic-6d" transform="translate(1335.253906 0.015625)"/>
     <use xlink:href="#DejaVuSerif-Italic-61" transform="translate(1430.078125 0.015625)"/>
     <use xlink:href="#DejaVuSerif-Italic-67" transform="translate(1489.697266 0.015625)"/>
     <use xlink:href="#DejaVuSerif-Italic-65" transform="translate(1553.710938 0.015625)"/>
     <use xlink:href="#DejaVuSerif-Italic-73" transform="translate(1612.890625 0.015625)"/>
    </g>
   </g>
  </g>
 </g>
 <defs>
  <clipPath id="pa89a81634d">
   <rect x="7.2" y="7.2" width="457.6" height="554.4"/>
  </clipPath>
  <clipPath id="p6c800837e0">
   <rect x="596.22012" y="7.2" width="473.420225" height="554.4"/>
  </clipPath>
 </defs>
</svg>
